<?xml version="1.0" encoding="UTF-8"?>
<svg xmlns="http://www.w3.org/2000/svg" xmlns:xlink="http://www.w3.org/1999/xlink" width="375pt" height="374.999991pt" viewBox="0 0 375 374.999991" version="1.2">
<defs>
<clipPath id="clip1">
  <path d="M 158 37.5 L 217 37.5 L 217 95 L 158 95 Z M 158 37.5 "/>
</clipPath>
<clipPath id="clip2">
  <path d="M 158 280 L 217 280 L 217 337.5 L 158 337.5 Z M 158 280 "/>
</clipPath>
<clipPath id="clip3">
  <path d="M 37.5 158 L 95 158 L 95 217 L 37.5 217 Z M 37.5 158 "/>
</clipPath>
<clipPath id="clip4">
  <path d="M 280 158 L 337.5 158 L 337.5 217 L 280 217 Z M 280 158 "/>
</clipPath>
<clipPath id="clip5">
  <path d="M 37.5 37.5 L 337.5 37.5 L 337.5 337.5 L 37.5 337.5 Z M 37.5 37.5 "/>
</clipPath>
</defs>
<g id="surface1">
<g clip-path="url(#clip1)" clip-rule="nonzero">
<path style=" stroke:none;fill-rule:nonzero;fill:rgb(80.389404%,12.548828%,17.248535%);fill-opacity:1;" d="M 216.046875 66.046875 C 216.046875 66.980469 216 67.914062 215.910156 68.84375 C 215.816406 69.773438 215.679688 70.699219 215.496094 71.617188 C 215.316406 72.53125 215.089844 73.4375 214.816406 74.332031 C 214.546875 75.226562 214.230469 76.105469 213.875 76.972656 C 213.515625 77.835938 213.117188 78.679688 212.675781 79.503906 C 212.234375 80.328125 211.753906 81.128906 211.234375 81.90625 C 210.714844 82.683594 210.160156 83.433594 209.566406 84.15625 C 208.972656 84.878906 208.347656 85.570312 207.683594 86.230469 C 207.023438 86.894531 206.332031 87.519531 205.609375 88.113281 C 204.886719 88.707031 204.136719 89.261719 203.359375 89.78125 C 202.582031 90.300781 201.78125 90.78125 200.957031 91.222656 C 200.132812 91.664062 199.289062 92.0625 198.425781 92.421875 C 197.558594 92.777344 196.679688 93.09375 195.785156 93.363281 C 194.890625 93.636719 193.984375 93.863281 193.070312 94.042969 C 192.152344 94.226562 191.226562 94.363281 190.296875 94.457031 C 189.367188 94.546875 188.433594 94.59375 187.5 94.59375 C 186.566406 94.59375 185.632812 94.546875 184.703125 94.457031 C 183.773438 94.363281 182.847656 94.226562 181.929688 94.042969 C 181.015625 93.863281 180.109375 93.636719 179.214844 93.363281 C 178.320312 93.09375 177.441406 92.777344 176.574219 92.421875 C 175.710938 92.0625 174.867188 91.664062 174.042969 91.222656 C 173.21875 90.78125 172.417969 90.300781 171.640625 89.78125 C 170.863281 89.261719 170.113281 88.707031 169.390625 88.113281 C 168.667969 87.519531 167.976562 86.894531 167.316406 86.230469 C 166.652344 85.570312 166.027344 84.878906 165.433594 84.15625 C 164.839844 83.433594 164.285156 82.683594 163.765625 81.90625 C 163.246094 81.128906 162.765625 80.328125 162.324219 79.503906 C 161.882812 78.679688 161.484375 77.835938 161.125 76.972656 C 160.769531 76.105469 160.453125 75.226562 160.183594 74.332031 C 159.910156 73.4375 159.683594 72.53125 159.503906 71.617188 C 159.320312 70.699219 159.183594 69.773438 159.089844 68.84375 C 159 67.914062 158.953125 66.980469 158.953125 66.046875 C 158.953125 65.113281 159 64.179688 159.089844 63.25 C 159.183594 62.316406 159.320312 61.394531 159.503906 60.476562 C 159.683594 59.558594 159.910156 58.65625 160.183594 57.761719 C 160.453125 56.863281 160.769531 55.984375 161.125 55.121094 C 161.484375 54.257812 161.882812 53.414062 162.324219 52.589844 C 162.765625 51.765625 163.246094 50.964844 163.765625 50.1875 C 164.285156 49.410156 164.839844 48.660156 165.433594 47.9375 C 166.027344 47.214844 166.652344 46.523438 167.316406 45.859375 C 167.976562 45.199219 168.667969 44.574219 169.390625 43.980469 C 170.113281 43.386719 170.863281 42.832031 171.640625 42.3125 C 172.417969 41.792969 173.21875 41.3125 174.042969 40.871094 C 174.867188 40.429688 175.710938 40.03125 176.574219 39.671875 C 177.441406 39.316406 178.320312 39 179.214844 38.730469 C 180.109375 38.457031 181.015625 38.230469 181.929688 38.046875 C 182.847656 37.867188 183.773438 37.730469 184.703125 37.636719 C 185.632812 37.546875 186.566406 37.5 187.5 37.5 C 188.433594 37.5 189.367188 37.546875 190.296875 37.636719 C 191.226562 37.730469 192.152344 37.867188 193.070312 38.046875 C 193.984375 38.230469 194.890625 38.457031 195.785156 38.730469 C 196.679688 39 197.558594 39.316406 198.425781 39.671875 C 199.289062 40.03125 200.132812 40.429688 200.957031 40.871094 C 201.78125 41.3125 202.582031 41.792969 203.359375 42.3125 C 204.136719 42.832031 204.886719 43.386719 205.609375 43.980469 C 206.332031 44.574219 207.023438 45.199219 207.683594 45.859375 C 208.347656 46.523438 208.972656 47.214844 209.566406 47.9375 C 210.160156 48.660156 210.714844 49.410156 211.234375 50.1875 C 211.753906 50.964844 212.234375 51.765625 212.675781 52.589844 C 213.117188 53.414062 213.515625 54.257812 213.875 55.121094 C 214.230469 55.984375 214.546875 56.863281 214.816406 57.761719 C 215.089844 58.65625 215.316406 59.558594 215.496094 60.476562 C 215.679688 61.394531 215.816406 62.316406 215.910156 63.25 C 216 64.179688 216.046875 65.113281 216.046875 66.046875 Z M 216.046875 66.046875 "/>
</g>
<g clip-path="url(#clip2)" clip-rule="nonzero">
<path style=" stroke:none;fill-rule:nonzero;fill:rgb(80.389404%,12.548828%,17.248535%);fill-opacity:1;" d="M 216.046875 308.953125 C 216.046875 309.886719 216 310.820312 215.910156 311.75 C 215.816406 312.683594 215.679688 313.605469 215.496094 314.523438 C 215.316406 315.441406 215.089844 316.34375 214.816406 317.238281 C 214.546875 318.136719 214.230469 319.015625 213.875 319.878906 C 213.515625 320.742188 213.117188 321.585938 212.675781 322.410156 C 212.234375 323.234375 211.753906 324.035156 211.234375 324.8125 C 210.714844 325.589844 210.160156 326.339844 209.566406 327.0625 C 208.972656 327.785156 208.347656 328.476562 207.683594 329.140625 C 207.023438 329.800781 206.332031 330.425781 205.609375 331.019531 C 204.886719 331.613281 204.136719 332.167969 203.359375 332.6875 C 202.582031 333.207031 201.78125 333.6875 200.957031 334.128906 C 200.132812 334.570312 199.289062 334.96875 198.425781 335.328125 C 197.558594 335.683594 196.679688 336 195.785156 336.269531 C 194.890625 336.542969 193.984375 336.769531 193.070312 336.953125 C 192.152344 337.132812 191.226562 337.269531 190.296875 337.363281 C 189.367188 337.453125 188.433594 337.5 187.5 337.5 C 186.566406 337.5 185.632812 337.453125 184.703125 337.363281 C 183.773438 337.269531 182.847656 337.132812 181.929688 336.953125 C 181.015625 336.769531 180.109375 336.542969 179.214844 336.269531 C 178.320312 336 177.441406 335.683594 176.574219 335.328125 C 175.710938 334.96875 174.867188 334.570312 174.042969 334.128906 C 173.21875 333.6875 172.417969 333.207031 171.640625 332.6875 C 170.863281 332.167969 170.113281 331.613281 169.390625 331.019531 C 168.667969 330.425781 167.976562 329.800781 167.316406 329.140625 C 166.652344 328.476562 166.027344 327.785156 165.433594 327.0625 C 164.839844 326.339844 164.285156 325.589844 163.765625 324.8125 C 163.246094 324.035156 162.765625 323.234375 162.324219 322.410156 C 161.882812 321.585938 161.484375 320.742188 161.125 319.878906 C 160.769531 319.015625 160.453125 318.136719 160.183594 317.238281 C 159.910156 316.34375 159.683594 315.441406 159.503906 314.523438 C 159.320312 313.605469 159.183594 312.683594 159.089844 311.75 C 159 310.820312 158.953125 309.886719 158.953125 308.953125 C 158.953125 308.019531 159 307.085938 159.089844 306.15625 C 159.183594 305.226562 159.320312 304.300781 159.503906 303.382812 C 159.683594 302.46875 159.910156 301.5625 160.183594 300.667969 C 160.453125 299.773438 160.769531 298.894531 161.125 298.027344 C 161.484375 297.164062 161.882812 296.320312 162.324219 295.496094 C 162.765625 294.671875 163.246094 293.871094 163.765625 293.09375 C 164.285156 292.316406 164.839844 291.566406 165.433594 290.84375 C 166.027344 290.121094 166.652344 289.429688 167.316406 288.769531 C 167.976562 288.105469 168.667969 287.480469 169.390625 286.886719 C 170.113281 286.292969 170.863281 285.738281 171.640625 285.21875 C 172.417969 284.699219 173.21875 284.21875 174.042969 283.777344 C 174.867188 283.335938 175.710938 282.9375 176.574219 282.578125 C 177.441406 282.222656 178.320312 281.90625 179.214844 281.636719 C 180.109375 281.363281 181.015625 281.136719 181.929688 280.957031 C 182.847656 280.773438 183.773438 280.636719 184.703125 280.542969 C 185.632812 280.453125 186.566406 280.40625 187.5 280.40625 C 188.433594 280.40625 189.367188 280.453125 190.296875 280.542969 C 191.226562 280.636719 192.152344 280.773438 193.070312 280.957031 C 193.984375 281.136719 194.890625 281.363281 195.785156 281.636719 C 196.679688 281.90625 197.558594 282.222656 198.425781 282.578125 C 199.289062 282.9375 200.132812 283.335938 200.957031 283.777344 C 201.78125 284.21875 202.582031 284.699219 203.359375 285.21875 C 204.136719 285.738281 204.886719 286.292969 205.609375 286.886719 C 206.332031 287.480469 207.023438 288.105469 207.683594 288.769531 C 208.347656 289.429688 208.972656 290.121094 209.566406 290.84375 C 210.160156 291.566406 210.714844 292.316406 211.234375 293.09375 C 211.753906 293.871094 212.234375 294.671875 212.675781 295.496094 C 213.117188 296.320312 213.515625 297.164062 213.875 298.027344 C 214.230469 298.894531 214.546875 299.773438 214.816406 300.667969 C 215.089844 301.5625 215.316406 302.46875 215.496094 303.382812 C 215.679688 304.300781 215.816406 305.226562 215.910156 306.15625 C 216 307.085938 216.046875 308.019531 216.046875 308.953125 Z M 216.046875 308.953125 "/>
</g>
<g clip-path="url(#clip3)" clip-rule="nonzero">
<path style=" stroke:none;fill-rule:nonzero;fill:rgb(80.389404%,12.548828%,17.248535%);fill-opacity:1;" d="M 94.59375 187.5 C 94.59375 188.433594 94.546875 189.367188 94.457031 190.296875 C 94.363281 191.226562 94.226562 192.152344 94.042969 193.070312 C 93.863281 193.984375 93.636719 194.890625 93.363281 195.785156 C 93.09375 196.679688 92.777344 197.558594 92.421875 198.425781 C 92.0625 199.289062 91.664062 200.132812 91.222656 200.957031 C 90.78125 201.78125 90.300781 202.582031 89.78125 203.359375 C 89.261719 204.136719 88.707031 204.886719 88.113281 205.609375 C 87.519531 206.332031 86.894531 207.023438 86.230469 207.683594 C 85.570312 208.347656 84.878906 208.972656 84.15625 209.566406 C 83.433594 210.160156 82.683594 210.714844 81.90625 211.234375 C 81.128906 211.753906 80.328125 212.234375 79.503906 212.675781 C 78.679688 213.117188 77.835938 213.515625 76.972656 213.875 C 76.105469 214.230469 75.226562 214.546875 74.332031 214.816406 C 73.4375 215.089844 72.53125 215.316406 71.617188 215.496094 C 70.699219 215.679688 69.773438 215.816406 68.84375 215.910156 C 67.914062 216 66.980469 216.046875 66.046875 216.046875 C 65.113281 216.046875 64.179688 216 63.25 215.910156 C 62.316406 215.816406 61.394531 215.679688 60.476562 215.496094 C 59.558594 215.316406 58.65625 215.089844 57.761719 214.816406 C 56.863281 214.546875 55.984375 214.230469 55.121094 213.875 C 54.257812 213.515625 53.414062 213.117188 52.589844 212.675781 C 51.765625 212.234375 50.964844 211.753906 50.1875 211.234375 C 49.410156 210.714844 48.660156 210.160156 47.9375 209.566406 C 47.214844 208.972656 46.523438 208.347656 45.859375 207.683594 C 45.199219 207.023438 44.574219 206.332031 43.980469 205.609375 C 43.386719 204.886719 42.832031 204.136719 42.3125 203.359375 C 41.792969 202.582031 41.3125 201.78125 40.871094 200.957031 C 40.429688 200.132812 40.03125 199.289062 39.671875 198.425781 C 39.316406 197.558594 39 196.679688 38.730469 195.785156 C 38.457031 194.890625 38.230469 193.984375 38.046875 193.070312 C 37.867188 192.152344 37.730469 191.226562 37.636719 190.296875 C 37.546875 189.367188 37.5 188.433594 37.5 187.5 C 37.5 186.566406 37.546875 185.632812 37.636719 184.703125 C 37.730469 183.773438 37.867188 182.847656 38.046875 181.929688 C 38.230469 181.015625 38.457031 180.109375 38.730469 179.214844 C 39 178.320312 39.316406 177.441406 39.671875 176.574219 C 40.03125 175.710938 40.429688 174.867188 40.871094 174.042969 C 41.3125 173.21875 41.792969 172.417969 42.3125 171.640625 C 42.832031 170.863281 43.386719 170.113281 43.980469 169.390625 C 44.574219 168.667969 45.199219 167.976562 45.859375 167.316406 C 46.523438 166.652344 47.214844 166.027344 47.9375 165.433594 C 48.660156 164.839844 49.410156 164.285156 50.1875 163.765625 C 50.964844 163.246094 51.765625 162.765625 52.589844 162.324219 C 53.414062 161.882812 54.257812 161.484375 55.121094 161.125 C 55.984375 160.769531 56.863281 160.453125 57.761719 160.183594 C 58.65625 159.910156 59.558594 159.683594 60.476562 159.503906 C 61.394531 159.320312 62.316406 159.183594 63.25 159.089844 C 64.179688 159 65.113281 158.953125 66.046875 158.953125 C 66.980469 158.953125 67.914062 159 68.84375 159.089844 C 69.773438 159.183594 70.699219 159.320312 71.617188 159.503906 C 72.53125 159.683594 73.4375 159.910156 74.332031 160.183594 C 75.226562 160.453125 76.105469 160.769531 76.972656 161.125 C 77.835938 161.484375 78.679688 161.882812 79.503906 162.324219 C 80.328125 162.765625 81.128906 163.246094 81.90625 163.765625 C 82.683594 164.285156 83.433594 164.839844 84.15625 165.433594 C 84.878906 166.027344 85.570312 166.652344 86.230469 167.316406 C 86.894531 167.976562 87.519531 168.667969 88.113281 169.390625 C 88.707031 170.113281 89.261719 170.863281 89.78125 171.640625 C 90.300781 172.417969 90.78125 173.21875 91.222656 174.042969 C 91.664062 174.867188 92.0625 175.710938 92.421875 176.574219 C 92.777344 177.441406 93.09375 178.320312 93.363281 179.214844 C 93.636719 180.109375 93.863281 181.015625 94.042969 181.929688 C 94.226562 182.847656 94.363281 183.773438 94.457031 184.703125 C 94.546875 185.632812 94.59375 186.566406 94.59375 187.5 Z M 94.59375 187.5 "/>
</g>
<g clip-path="url(#clip4)" clip-rule="nonzero">
<path style=" stroke:none;fill-rule:nonzero;fill:rgb(80.389404%,12.548828%,17.248535%);fill-opacity:1;" d="M 337.5 187.5 C 337.5 188.433594 337.453125 189.367188 337.363281 190.296875 C 337.269531 191.226562 337.132812 192.152344 336.953125 193.070312 C 336.769531 193.984375 336.542969 194.890625 336.269531 195.785156 C 336 196.679688 335.683594 197.558594 335.328125 198.425781 C 334.96875 199.289062 334.570312 200.132812 334.128906 200.957031 C 333.6875 201.78125 333.207031 202.582031 332.6875 203.359375 C 332.167969 204.136719 331.613281 204.886719 331.019531 205.609375 C 330.425781 206.332031 329.800781 207.023438 329.140625 207.683594 C 328.476562 208.347656 327.785156 208.972656 327.0625 209.566406 C 326.339844 210.160156 325.589844 210.714844 324.8125 211.234375 C 324.035156 211.753906 323.234375 212.234375 322.410156 212.675781 C 321.585938 213.117188 320.742188 213.515625 319.878906 213.875 C 319.015625 214.230469 318.136719 214.546875 317.238281 214.816406 C 316.34375 215.089844 315.441406 215.316406 314.523438 215.496094 C 313.605469 215.679688 312.683594 215.816406 311.75 215.910156 C 310.820312 216 309.886719 216.046875 308.953125 216.046875 C 308.019531 216.046875 307.085938 216 306.15625 215.910156 C 305.226562 215.816406 304.300781 215.679688 303.382812 215.496094 C 302.46875 215.316406 301.5625 215.089844 300.667969 214.816406 C 299.773438 214.546875 298.894531 214.230469 298.027344 213.875 C 297.164062 213.515625 296.320312 213.117188 295.496094 212.675781 C 294.671875 212.234375 293.871094 211.753906 293.09375 211.234375 C 292.316406 210.714844 291.566406 210.160156 290.84375 209.566406 C 290.121094 208.972656 289.429688 208.347656 288.769531 207.683594 C 288.105469 207.023438 287.480469 206.332031 286.886719 205.609375 C 286.292969 204.886719 285.738281 204.136719 285.21875 203.359375 C 284.699219 202.582031 284.21875 201.78125 283.777344 200.957031 C 283.335938 200.132812 282.9375 199.289062 282.578125 198.425781 C 282.222656 197.558594 281.90625 196.679688 281.636719 195.785156 C 281.363281 194.890625 281.136719 193.984375 280.957031 193.070312 C 280.773438 192.152344 280.636719 191.226562 280.542969 190.296875 C 280.453125 189.367188 280.40625 188.433594 280.40625 187.5 C 280.40625 186.566406 280.453125 185.632812 280.542969 184.703125 C 280.636719 183.773438 280.773438 182.847656 280.957031 181.929688 C 281.136719 181.015625 281.363281 180.109375 281.636719 179.214844 C 281.90625 178.320312 282.222656 177.441406 282.578125 176.574219 C 282.9375 175.710938 283.335938 174.867188 283.777344 174.042969 C 284.21875 173.21875 284.699219 172.417969 285.21875 171.640625 C 285.738281 170.863281 286.292969 170.113281 286.886719 169.390625 C 287.480469 168.667969 288.105469 167.976562 288.769531 167.316406 C 289.429688 166.652344 290.121094 166.027344 290.84375 165.433594 C 291.566406 164.839844 292.316406 164.285156 293.09375 163.765625 C 293.871094 163.246094 294.671875 162.765625 295.496094 162.324219 C 296.320312 161.882812 297.164062 161.484375 298.027344 161.125 C 298.894531 160.769531 299.773438 160.453125 300.667969 160.183594 C 301.5625 159.910156 302.46875 159.683594 303.382812 159.503906 C 304.300781 159.320312 305.226562 159.183594 306.15625 159.089844 C 307.085938 159 308.019531 158.953125 308.953125 158.953125 C 309.886719 158.953125 310.820312 159 311.75 159.089844 C 312.683594 159.183594 313.605469 159.320312 314.523438 159.503906 C 315.441406 159.683594 316.34375 159.910156 317.238281 160.183594 C 318.136719 160.453125 319.015625 160.769531 319.878906 161.125 C 320.742188 161.484375 321.585938 161.882812 322.410156 162.324219 C 323.234375 162.765625 324.035156 163.246094 324.8125 163.765625 C 325.589844 164.285156 326.339844 164.839844 327.0625 165.433594 C 327.785156 166.027344 328.476562 166.652344 329.140625 167.316406 C 329.800781 167.976562 330.425781 168.667969 331.019531 169.390625 C 331.613281 170.113281 332.167969 170.863281 332.6875 171.640625 C 333.207031 172.417969 333.6875 173.21875 334.128906 174.042969 C 334.570312 174.867188 334.96875 175.710938 335.328125 176.574219 C 335.683594 177.441406 336 178.320312 336.269531 179.214844 C 336.542969 180.109375 336.769531 181.015625 336.953125 181.929688 C 337.132812 182.847656 337.269531 183.773438 337.363281 184.703125 C 337.453125 185.632812 337.5 186.566406 337.5 187.5 Z M 337.5 187.5 "/>
</g>
<g clip-path="url(#clip5)" clip-rule="nonzero">
<path style=" stroke:none;fill-rule:nonzero;fill:rgb(100%,100%,100%);fill-opacity:1;" d="M 270.238281 265.195312 L 231.246094 226.203125 C 221.066406 216.019531 215.929688 202.085938 216.023438 187.683594 C 216.023438 187.5625 216.023438 187.4375 216.023438 187.3125 C 215.929688 172.914062 221.066406 158.980469 231.246094 148.796875 L 270.332031 109.714844 C 280.507812 99.535156 294.457031 94.515625 308.851562 94.582031 C 316.359375 94.617188 323.878906 91.703125 329.527344 85.835938 C 339.820312 75.144531 340.082031 57.84375 330.097656 46.867188 C 319.050781 34.722656 300.238281 34.386719 288.765625 45.859375 C 283.113281 51.515625 280.332031 58.945312 280.417969 66.347656 C 280.585938 80.710938 275.351562 94.601562 265.195312 104.757812 L 226.199219 143.753906 C 216.019531 153.933594 202.085938 159.070312 187.683594 158.976562 C 187.5625 158.976562 187.4375 158.976562 187.3125 158.976562 C 172.914062 159.070312 158.980469 153.933594 148.796875 143.753906 L 109.714844 104.667969 C 99.535156 94.488281 94.515625 80.542969 94.582031 66.148438 C 94.617188 58.636719 91.703125 51.117188 85.835938 45.472656 C 75.144531 35.179688 57.84375 34.917969 46.867188 44.902344 C 34.722656 55.949219 34.386719 74.757812 45.863281 86.234375 C 51.515625 91.886719 58.945312 94.664062 66.347656 94.578125 C 80.710938 94.414062 94.601562 99.648438 104.757812 109.804688 L 143.753906 148.796875 C 153.933594 158.980469 159.070312 172.914062 158.976562 187.3125 C 158.976562 187.4375 158.976562 187.5625 158.976562 187.683594 C 159.070312 202.085938 153.933594 216.019531 143.753906 226.203125 L 104.667969 265.285156 C 94.488281 275.464844 80.542969 280.484375 66.148438 280.417969 C 58.636719 280.382812 51.117188 283.296875 45.472656 289.164062 C 35.179688 299.855469 34.917969 317.15625 44.902344 328.132812 C 55.949219 340.277344 74.757812 340.613281 86.234375 329.136719 C 91.886719 323.484375 94.664062 316.054688 94.578125 308.652344 C 94.414062 294.289062 99.648438 280.394531 109.804688 270.242188 L 148.796875 231.246094 C 158.980469 221.066406 172.914062 215.929688 187.3125 216.023438 C 187.4375 216.023438 187.5625 216.023438 187.683594 216.023438 C 202.082031 215.929688 216.019531 221.066406 226.199219 231.246094 L 265.285156 270.332031 C 275.464844 280.507812 280.484375 294.457031 280.417969 308.851562 C 280.382812 316.359375 283.296875 323.878906 289.164062 329.527344 C 299.855469 339.820312 317.15625 340.082031 328.132812 330.097656 C 340.277344 319.050781 340.613281 300.238281 329.136719 288.765625 C 323.484375 283.113281 316.054688 280.332031 308.652344 280.417969 C 294.289062 280.585938 280.394531 275.351562 270.238281 265.195312 Z M 270.238281 265.195312 "/>
</g>
</g>
</svg>
